<svg width="507" height="131" viewBox="0 0 507 131" fill="none" xmlns="http://www.w3.org/2000/svg">
<g clip-path="url(#clip0_7513_400)">
<path d="M239.57 28.251C225.972 28.251 218.123 33.881 213.258 39.6117H212.927V30.3623H199.992V131H212.927V95.9125H213.258C218.123 102.447 225.862 107.675 239.57 107.675C260.023 107.675 276.606 92.7958 276.606 67.9632C276.606 43.1305 260.023 28.251 239.57 28.251ZM237.912 97.32C222.545 97.32 212.927 85.6577 212.927 67.9632C212.927 50.2686 222.545 38.6063 237.912 38.6063C253.279 38.6063 263.56 53.1842 263.56 67.9632C263.56 82.7421 254.937 97.32 237.912 97.32Z" fill="white"/>
<path d="M303.581 0H290.646V105.564H303.581V0Z" fill="white"/>
<path d="M385.612 88.5733V51.9778C385.612 33.7805 371.461 28.251 355.762 28.251C331.772 28.251 321.822 39.2095 321.048 53.5863H333.983C334.757 42.6278 339.953 38.5057 355.762 38.5057C371.571 38.5057 372.677 43.5326 372.677 49.4643C372.677 55.396 366.375 58.6132 352.446 60.9256C330.998 64.6454 317.068 69.0691 317.068 86.1604C317.068 103.252 327.571 107.575 344.375 107.575C361.179 107.575 367.26 103.151 372.456 96.1136H372.788C375.109 104.358 379.752 106.268 387.602 106.268C395.451 106.268 391.803 106.167 395.23 105.061V96.8173C386.938 97.7221 385.833 94.505 385.833 88.5733H385.612ZM372.566 76.5088C372.566 90.9862 360.848 97.32 345.481 97.32C330.114 97.32 329.893 92.9969 329.893 85.6577C329.893 78.3185 337.41 72.99 353.441 69.8734C362.174 68.2648 370.134 66.1535 372.566 63.9417V76.5088Z" fill="white"/>
<path d="M412.808 1.50806C409.27 1.50806 404.738 4.02149 404.738 8.54566C404.738 13.0698 409.27 15.5833 412.808 15.5833C416.346 15.5833 420.878 13.0698 420.878 8.54566C420.878 4.02149 416.456 1.50806 412.808 1.50806Z" fill="white"/>
<path d="M419.331 30.2617H406.396V105.564H419.331V30.2617Z" fill="white"/>
<path d="M479.361 28.2509C465.21 28.2509 456.477 33.9815 452.055 39.31H451.723V30.2616H438.788V105.564H451.723V58.6131C451.723 46.9508 461.452 38.5057 476.045 38.5057C490.638 38.5057 494.065 46.1465 494.065 55.8986V105.463H507V52.8825C507 35.5901 494.397 28.0498 479.251 28.0498L479.361 28.2509Z" fill="white"/>
<path d="M143.831 74.5985L141.619 72.5878L138.524 69.7727L136.313 67.762L138.524 65.7512L141.619 62.9362L143.831 60.9255L149.027 56.2002V30.3622C147.368 30.1611 145.599 30.0605 143.831 30.0605C142.062 30.0605 140.293 30.1611 138.635 30.3622V56.2002L126.031 44.739L118.514 37.9025C117.187 38.9078 115.86 39.9132 114.534 41.0191C113.318 42.125 112.102 43.3315 111.107 44.6384L118.624 51.475L131.227 62.9362H102.815C102.594 64.4443 102.483 66.0528 102.483 67.6614C102.483 69.27 102.594 70.8786 102.815 72.3867H131.227L118.624 83.8479L111.107 90.6845C112.212 91.8909 113.318 93.0974 114.534 94.2033C115.75 95.3092 117.077 96.4151 118.514 97.3199L126.031 90.4834L138.635 79.0222V104.86C140.293 105.061 142.062 105.162 143.831 105.162C145.599 105.162 147.368 105.061 149.027 104.86V95.2086V78.9216L143.831 74.1964V74.5985Z" fill="white"/>
<path d="M92.5334 74.5985L90.3223 72.5878L87.2268 69.7727L85.0158 67.762L87.2268 65.7512L90.3223 62.9362L92.5334 60.9255L97.7295 56.2002V30.3622C96.0711 30.1611 94.3023 30.0605 92.5334 30.0605C90.7646 30.0605 88.9957 30.1611 87.3374 30.3622V56.2002L74.7342 44.739L67.2166 37.9025C65.89 38.9078 64.5633 39.9132 63.2367 41.0191C62.0206 42.125 60.8045 43.3315 59.8095 44.6384L67.3271 51.475L79.9303 62.9362H51.5179C51.2968 64.4443 51.1863 66.0528 51.1863 67.6614C51.1863 69.27 51.2968 70.8786 51.5179 72.3867H79.9303L67.3271 83.8479L59.8095 90.6845C60.915 91.8909 62.0206 93.0974 63.2367 94.2033C64.4527 95.3092 65.7794 96.4151 67.2166 97.3199L74.7342 90.4834L87.3374 79.0222V104.86C88.9957 105.061 90.7646 105.162 92.5334 105.162C94.3023 105.162 96.0711 105.061 97.7295 104.86V95.2086V78.9216L92.5334 74.1964V74.5985Z" fill="white"/>
<path d="M41.3471 74.5985L39.1361 72.5878L36.0406 69.7727L33.8295 67.762L36.0406 65.7512L39.1361 62.9362L41.3471 60.9255L46.5432 56.2002V30.3622C44.8849 30.1611 43.116 30.0605 41.3471 30.0605C39.5783 30.0605 37.8094 30.1611 36.1511 30.3622V56.2002L23.548 44.739L16.0303 37.9025C14.7037 38.9078 13.377 39.9132 12.0504 41.0191C10.8343 42.125 9.61818 43.3315 8.6232 44.6384L16.1409 51.475L28.744 62.9362H0.331657C0.110549 64.4443 0 66.0528 0 67.6614C0 69.27 0.110549 70.8786 0.331657 72.3867H28.744L16.1409 83.8479L8.6232 90.6845C9.72873 91.8909 10.8343 93.0974 12.0504 94.2033C13.2665 95.3092 14.5931 96.4151 16.0303 97.3199L23.548 90.4834L36.1511 79.0222V104.86C37.8094 105.061 39.5783 105.162 41.3471 105.162C43.116 105.162 44.8849 105.061 46.5432 104.86V95.2086V78.9216L41.3471 74.1964V74.5985Z" fill="white"/>
</g>
<defs>
<clipPath id="clip0_7513_400">
<rect width="507" height="131" fill="white"/>
</clipPath>
</defs>
</svg>
