<svg width="507" height="132" viewBox="0 0 507 132" fill="none" xmlns="http://www.w3.org/2000/svg">
<g clip-path="url(#clip0_8182_474)">
<path d="M239.57 28.9509C225.972 28.9509 218.123 34.581 213.258 40.3116H212.927V31.0622H199.992V131.7H212.927V96.6124H213.258C218.123 103.147 225.862 108.375 239.57 108.375C260.023 108.375 276.606 93.4958 276.606 68.6631C276.606 43.8304 260.023 28.9509 239.57 28.9509ZM237.912 98.0199C222.545 98.0199 212.927 86.3577 212.927 68.6631C212.927 50.9686 222.545 39.3062 237.912 39.3062C253.279 39.3062 263.56 53.8841 263.56 68.6631C263.56 83.4421 254.937 98.0199 237.912 98.0199Z" fill="#79FC96"/>
<path d="M303.581 0.699951H290.646V106.264H303.581V0.699951Z" fill="#79FC96"/>
<path d="M385.612 89.2732V52.6777C385.612 34.4805 371.461 28.9509 355.762 28.9509C331.772 28.9509 321.822 39.9095 321.048 54.2863H333.983C334.757 43.3277 339.953 39.2057 355.762 39.2057C371.571 39.2057 372.677 44.2326 372.677 50.1643C372.677 56.096 366.375 59.3131 352.446 61.6255C330.998 65.3454 317.068 69.769 317.068 86.8603C317.068 103.952 327.571 108.275 344.375 108.275C361.179 108.275 367.26 103.851 372.456 96.8135H372.788C375.109 105.058 379.752 106.968 387.602 106.968C395.451 106.968 391.803 106.867 395.23 105.761V97.5173C386.938 98.4221 385.833 95.2049 385.833 89.2732H385.612ZM372.566 77.2088C372.566 91.6861 360.848 98.0199 345.481 98.0199C330.114 98.0199 329.893 93.6969 329.893 86.3577C329.893 79.0184 337.41 73.69 353.441 70.5733C362.174 68.9647 370.134 66.8534 372.566 64.6416V77.2088Z" fill="#79FC96"/>
<path d="M412.808 2.20801C409.27 2.20801 404.738 4.72144 404.738 9.24561C404.738 13.7698 409.27 16.2832 412.808 16.2832C416.346 16.2832 420.878 13.7698 420.878 9.24561C420.878 4.72144 416.456 2.20801 412.808 2.20801Z" fill="#79FC96"/>
<path d="M419.331 30.9617H406.396V106.264H419.331V30.9617Z" fill="#79FC96"/>
<path d="M479.361 28.9508C465.21 28.9508 456.477 34.6815 452.055 40.0099H451.723V30.9616H438.788V106.264H451.723V59.313C451.723 47.6507 461.452 39.2056 476.045 39.2056C490.638 39.2056 494.065 46.8465 494.065 56.5986V106.163H507V53.5824C507 36.2901 494.397 28.7498 479.251 28.7498L479.361 28.9508Z" fill="#79FC96"/>
<path d="M143.831 75.2985L141.619 73.2877L138.524 70.4727L136.313 68.4619L138.524 66.4512L141.619 63.6362L143.831 61.6254L149.027 56.9002V31.0621C147.368 30.8611 145.599 30.7605 143.831 30.7605C142.062 30.7605 140.293 30.8611 138.635 31.0621V56.9002L126.031 45.4389L118.514 38.6024C117.187 39.6078 115.86 40.6131 114.534 41.719C113.318 42.825 112.102 44.0314 111.107 45.3384L118.624 52.1749L131.227 63.6362H102.815C102.594 65.1442 102.483 66.7528 102.483 68.3614C102.483 69.97 102.594 71.5786 102.815 73.0866H131.227L118.624 84.5479L111.107 91.3844C112.212 92.5909 113.318 93.7973 114.534 94.9032C115.75 96.0091 117.077 97.115 118.514 98.0198L126.031 91.1833L138.635 79.7221V105.56C140.293 105.761 142.062 105.862 143.831 105.862C145.599 105.862 147.368 105.761 149.027 105.56V95.9086V79.6216L143.831 74.8963V75.2985Z" fill="#79FC96"/>
<path d="M92.5334 75.2985L90.3223 73.2877L87.2268 70.4727L85.0158 68.4619L87.2268 66.4512L90.3223 63.6362L92.5334 61.6254L97.7295 56.9002V31.0621C96.0711 30.8611 94.3023 30.7605 92.5334 30.7605C90.7646 30.7605 88.9957 30.8611 87.3374 31.0621V56.9002L74.7342 45.4389L67.2166 38.6024C65.89 39.6078 64.5633 40.6131 63.2367 41.719C62.0206 42.825 60.8045 44.0314 59.8095 45.3384L67.3271 52.1749L79.9303 63.6362H51.5179C51.2968 65.1442 51.1863 66.7528 51.1863 68.3614C51.1863 69.97 51.2968 71.5786 51.5179 73.0866H79.9303L67.3271 84.5479L59.8095 91.3844C60.915 92.5909 62.0206 93.7973 63.2367 94.9032C64.4527 96.0091 65.7794 97.115 67.2166 98.0198L74.7342 91.1833L87.3374 79.7221V105.56C88.9957 105.761 90.7646 105.862 92.5334 105.862C94.3023 105.862 96.0711 105.761 97.7295 105.56V95.9086V79.6216L92.5334 74.8963V75.2985Z" fill="#79FC96"/>
<path d="M41.3471 75.2985L39.1361 73.2877L36.0406 70.4727L33.8295 68.4619L36.0406 66.4512L39.1361 63.6362L41.3471 61.6254L46.5432 56.9002V31.0621C44.8849 30.8611 43.116 30.7605 41.3471 30.7605C39.5783 30.7605 37.8094 30.8611 36.1511 31.0621V56.9002L23.548 45.4389L16.0303 38.6024C14.7037 39.6078 13.377 40.6131 12.0504 41.719C10.8343 42.825 9.61818 44.0314 8.6232 45.3384L16.1409 52.1749L28.744 63.6362H0.331657C0.110549 65.1442 0 66.7528 0 68.3614C0 69.97 0.110549 71.5786 0.331657 73.0866H28.744L16.1409 84.5479L8.6232 91.3844C9.72873 92.5909 10.8343 93.7973 12.0504 94.9032C13.2665 96.0091 14.5931 97.115 16.0303 98.0198L23.548 91.1833L36.1511 79.7221V105.56C37.8094 105.761 39.5783 105.862 41.3471 105.862C43.116 105.862 44.8849 105.761 46.5432 105.56V95.9086V79.6216L41.3471 74.8963V75.2985Z" fill="#79FC96"/>
</g>
<defs>
<clipPath id="clip0_8182_474">
<rect width="507" height="131" fill="white" transform="translate(0 0.699951)"/>
</clipPath>
</defs>
</svg>
